<?xml version="1.0" standalone="no"?><!DOCTYPE svg PUBLIC "-//W3C//DTD SVG 1.1//EN" "http://www.w3.org/Graphics/SVG/1.1/DTD/svg11.dtd"><svg t="1536043764043" class="icon" style="" viewBox="0 0 1024 1024" version="1.1" xmlns="http://www.w3.org/2000/svg" p-id="980" xmlns:xlink="http://www.w3.org/1999/xlink" width="256" height="256"><defs><style type="text/css"></style></defs><path d="M951.972274 763.140339C925.452409 808.49139 870.911393 831.730983 795.604003 831.730983 765.821223 831.730983 732.601969 827.86061 696.779325 820.519051 655.550308 950.436881 589.528342 1024 511.999393 1024 434.496477 1024 368.474511 950.436881 327.245494 820.579797 290.468274 828.233763 256.684952 831.861153 226.546376 831.861153 151.976613 831.861153 98.798037 808.96 72.061223 763.166373 34.711257 699.070915 64.494037 608.950237 153.399799 511.991322 64.528748 415.032407 34.711257 324.929085 72.026511 260.842305 108.994647 197.553898 200.833562 177.594576 327.184748 203.506983 368.448477 73.589153 434.470443 0 511.999393 0 589.528342 0 655.550308 73.589153 696.779325 203.489627 736.671935 195.210847 772.876409 191.461966 804.950172 192.121492 875.580138 193.588068 926.155325 216.645424 951.937562 260.816271 989.287528 324.894373 959.504748 415.032407 870.590308 511.991322 959.470037 608.915525 989.287528 699.044881 951.972274 763.140339ZM408.974579 751.57261C440.952884 880.08461 489.14163 927.969627 511.999393 927.969627 532.088884 927.969627 571.729833 890.958102 602.753562 794.780203 566.418918 782.535593 529.03424 767.57478 491.016071 749.793627 459.966308 735.301424 429.445901 719.498847 400.331325 702.785085 399.888748 702.533424 399.41146 702.229695 398.960206 701.978034 402.075596 718.752542 405.034782 735.683254 408.974579 751.57261ZM156.836274 715.437559C165.991528 731.144678 213.607528 745.454644 304.517901 727.213559 297.14163 689.230102 291.075732 650.15322 287.830172 609.037017 285.547867 580.026576 284.402376 550.096271 284.21146 520.096542 274.136342 528.826576 264.347596 537.591322 255.192342 546.34739 163.101765 634.498169 145.997494 696.823322 156.836274 715.437559ZM348.29824 307.165288C228.585698 274.050169 167.362647 290.434169 156.775528 308.571119 147.368613 324.738169 159.257426 374.202576 223.37024 444.954034 249.369426 422.712407 277.659596 400.739797 308.27546 379.418034 337.702443 358.972746 367.719528 340.01139 397.597765 322.820339 380.875325 316.988746 364.343799 311.608407 348.29824 307.165288ZM615.024206 272.401356C583.045901 143.872 534.848477 95.978305 511.999393 95.978305 491.909901 95.978305 452.268952 133.015864 421.245223 229.219797 457.579867 241.464407 494.964545 256.390508 532.974037 274.180339 564.032477 288.689898 594.552884 304.492475 623.66746 321.162847 624.110037 321.423186 624.587325 321.726915 625.038579 321.995932 621.923189 305.230102 618.964003 288.282034 615.024206 272.401356ZM639.660952 444.737085C618.009426 430.349017 596.236409 416.559729 574.524138 404.132881 554.373901 392.599864 533.295121 381.700339 511.999393 371.2 490.703664 381.700339 469.624884 392.599864 449.474647 404.132881 427.762376 416.559729 405.989359 430.349017 384.337833 444.745763 383.036138 466.978712 381.734443 489.263729 381.734443 511.991322 381.734443 534.718915 383.036138 557.029966 384.337833 579.236881 405.989359 593.607593 427.762376 607.414237 449.474647 619.823729 469.659596 631.408814 490.703664 642.317017 511.999393 652.782644 533.295121 642.317017 554.373901 631.408814 574.524138 619.858441 596.236409 607.414237 618.009426 593.607593 639.660952 579.236881 640.962647 557.003932 642.264342 534.718915 642.264342 511.991322 642.264342 489.263729 640.962647 466.978712 639.660952 444.737085ZM626.435732 701.162305C643.149494 707.002576 659.646308 712.374237 675.700545 716.817356 795.352342 749.889085 856.601426 733.461695 867.223257 715.437559 876.630172 699.218441 864.706647 649.780068 800.663257 579.02861 774.629359 601.261559 746.330511 623.225492 715.723325 644.590644 686.322376 665.018576 656.279257 683.979932 626.435732 701.162305ZM867.153833 308.536407C857.937833 292.829288 810.356545 278.493288 719.472206 296.734373 726.848477 334.717831 732.923054 373.84678 736.159935 414.936949 738.450918 443.938712 739.596409 473.842983 739.787325 503.886102 749.862443 495.156068 759.651189 486.391322 768.806443 477.617898 860.89702 389.493153 877.992613 327.141966 867.153833 308.536407ZM511.999393 576C476.046579 576 446.862579 547.319322 446.862579 511.991322 446.862579 476.637288 476.046579 447.982644 511.999393 447.982644 547.952206 447.982644 577.127528 476.637288 577.127528 511.991322 577.127528 547.319322 547.952206 576 511.999393 576Z" p-id="981" fill="#1296db"></path></svg>